<svg width="311" height="150" viewBox="0 0 311 150" fill="none" xmlns="http://www.w3.org/2000/svg">
<mask id="mask0_104_44" style="mask-type:luminance" maskUnits="userSpaceOnUse" x="0" y="0" width="311" height="150">
<path d="M311 0H0V149.506H311V0Z" fill="white"/>
</mask>
<g mask="url(#mask0_104_44)">
<path d="M30.525 79.0875H115.725" stroke="black" stroke-width="2.86363" stroke-linecap="round" stroke-linejoin="round"/>
<path d="M102.26 42.6176L54.2979 105.636" stroke="black" stroke-width="2.86363" stroke-linecap="round" stroke-linejoin="round"/>
<path d="M153.02 13.811L69.3414 125.881" stroke="black" stroke-width="2.86363" stroke-linecap="round" stroke-linejoin="round"/>
<path d="M130.704 60.9352C126.506 68.2677 117.538 79.0651 113.704 85.9282C113.149 87.1667 111.887 88.7852 112.043 89.9789C112.742 90.1577 113.583 89.2546 114.428 88.7226C124.216 81.2114 134.78 70.6999 144.819 63.5285C147.764 61.436 153.392 60.7833 148.293 68.2543C145.079 72.9623 139.416 81.7969 136.619 88.0877C136.111 89.2278 137.751 90.2964 138.869 89.8091C140.959 88.9014 142.837 86.7329 144.32 85.3693C148.687 81.3365 153.228 77.5182 157.634 73.5301C162.53 69.0993 173.323 59.2409 174.828 62.3079C176.975 66.685 166.428 79.1278 162.044 88.1056C160.899 90.4528 163.297 91.5034 164.854 91.3157C172.53 90.3903 183.454 84.3141 187.687 76.1053C189.316 72.9444 190.677 69.6314 192.122 66.372C190.791 69.3855 189.573 72.4616 188.602 75.6225C187.43 79.4408 185.812 83.5452 187.213 87.5467C188.211 90.3858 191.207 90.8284 193.827 90.8284C217.865 90.8284 243.242 90.9848 267.974 90.8284C274.374 90.7881 280.775 90.891 287.174 90.8284C292.235 90.7792 297.296 90.8955 302.357 90.8284C304.373 90.8016 306.391 90.8597 308.407 90.8284" stroke="black" stroke-width="2.86363" stroke-linecap="round" stroke-linejoin="round"/>
<path d="M195.04 61.4673C196.501 61.4673 197.903 60.1394 197.838 58.5836C197.773 57.0277 196.61 55.6998 195.04 55.6998C193.579 55.6998 192.178 57.0277 192.243 58.5836C192.308 60.1394 193.471 61.4673 195.04 61.4673Z" fill="black"/>
<path d="M105.161 111.171V100.526H106.636V111.171H105.161ZM105.825 106.593V105.131H112.598V106.593H105.825ZM111.948 111.171V100.526H113.422V111.171H111.948Z" fill="black"/>
<path d="M118.956 111.324C118.305 111.324 117.716 111.14 117.187 110.778C116.658 110.411 116.232 109.92 115.92 109.294C115.604 108.668 115.448 107.961 115.448 107.17C115.448 106.379 115.608 105.659 115.929 105.033C116.25 104.411 116.684 103.92 117.234 103.566C117.785 103.213 118.401 103.034 119.077 103.034C119.472 103.034 119.836 103.097 120.179 103.218C120.517 103.338 120.816 103.508 121.072 103.727C121.328 103.946 121.54 104.197 121.705 104.478C121.874 104.765 121.979 105.069 122.03 105.391L121.692 105.27L121.705 103.2H123.123V111.171H121.705V109.253L122.043 109.133C121.974 109.406 121.848 109.674 121.666 109.938C121.484 110.201 121.254 110.438 120.972 110.644C120.69 110.854 120.378 111.015 120.036 111.14C119.693 111.261 119.333 111.324 118.96 111.324H118.956ZM119.312 109.987C119.784 109.987 120.205 109.866 120.573 109.62C120.942 109.379 121.233 109.043 121.445 108.614C121.658 108.189 121.762 107.702 121.762 107.152C121.762 106.602 121.658 106.151 121.445 105.73C121.233 105.31 120.946 104.979 120.582 104.733C120.218 104.492 119.793 104.367 119.312 104.367C118.83 104.367 118.422 104.487 118.058 104.733C117.694 104.975 117.408 105.31 117.204 105.73C116.996 106.151 116.896 106.624 116.896 107.152C116.896 107.68 117 108.185 117.204 108.614C117.412 109.039 117.694 109.374 118.058 109.62C118.422 109.861 118.839 109.987 119.312 109.987Z" fill="black"/>
<path d="M125.24 111.171V103.2H126.658L126.671 105.605L126.523 105.073C126.632 104.697 126.814 104.358 127.07 104.045C127.325 103.736 127.625 103.49 127.963 103.307C128.301 103.124 128.657 103.034 129.034 103.034C129.199 103.034 129.359 103.048 129.515 103.079C129.667 103.11 129.789 103.142 129.875 103.168L129.507 104.765C129.381 104.702 129.247 104.657 129.108 104.626C128.969 104.595 128.839 104.581 128.709 104.581C128.423 104.581 128.154 104.635 127.907 104.747C127.655 104.858 127.438 105.015 127.256 105.212C127.074 105.408 126.931 105.636 126.822 105.896C126.714 106.155 126.662 106.432 126.662 106.723V111.163H125.244L125.24 111.171Z" fill="black"/>
<path d="M131.038 111.171V103.2H132.456L132.469 104.934L132.204 105.086C132.282 104.814 132.412 104.554 132.586 104.313C132.763 104.071 132.976 103.852 133.228 103.665C133.479 103.477 133.752 103.329 134.047 103.217C134.342 103.106 134.645 103.052 134.962 103.052C135.396 103.052 135.777 103.128 136.107 103.28C136.436 103.432 136.71 103.665 136.927 103.973C137.143 104.282 137.304 104.675 137.412 105.153L137.161 105.078L137.265 104.818C137.373 104.586 137.521 104.362 137.716 104.148C137.907 103.933 138.128 103.745 138.371 103.584C138.618 103.423 138.878 103.294 139.16 103.195C139.442 103.097 139.724 103.052 140.01 103.052C140.582 103.052 141.051 103.173 141.428 103.419C141.801 103.66 142.083 104.031 142.278 104.528C142.469 105.024 142.564 105.645 142.564 106.383V111.176H141.146V106.459C141.146 105.994 141.085 105.61 140.968 105.301C140.851 104.997 140.678 104.774 140.443 104.626C140.214 104.478 139.914 104.407 139.55 104.407C139.255 104.407 138.982 104.456 138.731 104.559C138.479 104.662 138.262 104.8 138.08 104.984C137.898 105.167 137.755 105.377 137.651 105.614C137.547 105.851 137.495 106.11 137.495 106.383V111.176H136.064V106.446C136.064 105.998 136.003 105.628 135.886 105.328C135.769 105.028 135.591 104.8 135.357 104.644C135.122 104.487 134.836 104.407 134.502 104.407C134.208 104.407 133.939 104.456 133.691 104.559C133.444 104.662 133.228 104.8 133.041 104.979C132.855 105.158 132.711 105.364 132.612 105.605C132.512 105.842 132.464 106.101 132.464 106.374V111.18H131.033L131.038 111.171Z" fill="black"/>
<path d="M148.076 111.324C147.317 111.324 146.64 111.145 146.046 110.783C145.452 110.425 144.98 109.933 144.637 109.307C144.294 108.686 144.121 107.97 144.121 107.17C144.121 106.37 144.294 105.659 144.637 105.033C144.98 104.411 145.452 103.92 146.046 103.566C146.64 103.213 147.317 103.034 148.076 103.034C148.835 103.034 149.494 103.213 150.088 103.566C150.682 103.92 151.155 104.411 151.497 105.033C151.84 105.659 152.013 106.37 152.013 107.17C152.013 107.97 151.84 108.681 151.497 109.307C151.155 109.933 150.682 110.425 150.088 110.783C149.494 111.145 148.822 111.324 148.076 111.324ZM148.076 109.987C148.557 109.987 148.987 109.866 149.368 109.62C149.745 109.379 150.045 109.043 150.261 108.614C150.478 108.189 150.582 107.706 150.569 107.17C150.578 106.624 150.478 106.137 150.261 105.717C150.045 105.297 149.745 104.966 149.368 104.72C148.991 104.474 148.557 104.353 148.076 104.353C147.594 104.353 147.161 104.478 146.77 104.724C146.38 104.975 146.081 105.306 145.864 105.73C145.647 106.151 145.543 106.629 145.556 107.165C145.548 107.702 145.647 108.185 145.864 108.61C146.081 109.034 146.385 109.37 146.77 109.616C147.161 109.857 147.594 109.982 148.076 109.982V109.987Z" fill="black"/>
<path d="M153.653 111.171V103.2H155.053L155.066 104.84L154.832 104.993C154.932 104.648 155.123 104.326 155.409 104.027C155.695 103.727 156.033 103.486 156.428 103.302C156.823 103.119 157.226 103.03 157.638 103.03C158.228 103.03 158.718 103.15 159.104 103.387C159.494 103.624 159.785 103.986 159.98 104.474C160.175 104.961 160.275 105.574 160.275 106.316V111.167H158.874V106.405C158.874 105.927 158.813 105.538 158.687 105.225C158.566 104.916 158.375 104.688 158.119 104.541C157.863 104.393 157.547 104.331 157.174 104.349C156.87 104.349 156.589 104.398 156.333 104.501C156.077 104.603 155.851 104.742 155.66 104.925C155.47 105.109 155.318 105.319 155.209 105.556C155.101 105.793 155.045 106.052 155.045 106.325V111.162H153.644L153.653 111.171Z" fill="black"/>
<path d="M163.657 114.672L165.205 110.948L165.236 112.15L161.372 103.208H163.011L165.487 109.141C165.548 109.262 165.608 109.428 165.678 109.638C165.747 109.848 165.812 110.049 165.869 110.255L165.47 110.317C165.548 110.116 165.626 109.911 165.7 109.709C165.773 109.508 165.838 109.303 165.899 109.101L168.007 103.213H169.659L166.489 111.185L165.175 114.681H163.657V114.672Z" fill="black"/>
<path d="M175.322 111.171V100.526H176.766L180.587 106.928L179.893 106.915L183.758 100.526H185.114V111.171H183.64V106.669C183.64 105.757 183.656 104.934 183.7 104.205C183.743 103.477 183.814 102.753 183.922 102.033L184.13 102.551L180.648 108.104H179.733L176.368 102.614L176.528 102.037C176.628 102.717 176.697 103.414 176.736 104.13C176.775 104.845 176.797 105.694 176.797 106.678V111.18H175.322V111.171Z" fill="black"/>
<path d="M190.37 111.323C189.799 111.323 189.312 111.194 188.904 110.934C188.497 110.675 188.184 110.309 187.967 109.83C187.752 109.352 187.643 108.775 187.643 108.095V103.2H189.043V107.733C189.043 108.22 189.117 108.636 189.256 108.981C189.399 109.325 189.607 109.589 189.885 109.772C190.162 109.955 190.5 110.045 190.903 110.045C191.198 110.045 191.468 109.996 191.715 109.893C191.961 109.79 192.174 109.651 192.357 109.468C192.538 109.285 192.681 109.07 192.786 108.82C192.891 108.569 192.941 108.301 192.941 108.006V103.2H194.342V111.171H192.941V109.499L193.176 109.347C193.059 109.714 192.86 110.045 192.578 110.344C192.296 110.644 191.967 110.881 191.589 111.06C191.211 111.238 190.804 111.328 190.37 111.328V111.323Z" fill="black"/>
<path d="M199.031 111.323C198.38 111.323 197.794 111.203 197.273 110.966C196.755 110.729 196.324 110.385 195.99 109.937L196.948 109.084C197.245 109.437 197.568 109.696 197.928 109.857C198.29 110.018 198.693 110.098 199.147 110.098C199.342 110.098 199.525 110.076 199.695 110.031C199.863 109.987 200.006 109.915 200.127 109.817C200.25 109.718 200.344 109.602 200.409 109.468C200.474 109.329 200.505 109.182 200.505 109.021C200.505 108.739 200.396 108.507 200.179 108.337C200.071 108.256 199.912 108.171 199.695 108.086C199.478 108.002 199.205 107.912 198.866 107.818C198.293 107.657 197.829 107.483 197.465 107.299C197.1 107.116 196.818 106.906 196.624 106.66C196.476 106.477 196.368 106.271 196.299 106.043C196.228 105.815 196.194 105.569 196.194 105.306C196.194 104.97 196.263 104.666 196.402 104.384C196.541 104.107 196.736 103.866 196.984 103.66C197.23 103.454 197.525 103.298 197.859 103.191C198.194 103.079 198.554 103.025 198.935 103.025C199.317 103.025 199.658 103.074 200.018 103.177C200.38 103.28 200.709 103.428 201.016 103.62C201.324 103.812 201.575 104.04 201.785 104.304L200.973 105.234C200.787 105.033 200.579 104.858 200.353 104.711C200.127 104.563 199.897 104.447 199.667 104.362C199.438 104.277 199.217 104.233 199.013 104.233C198.796 104.233 198.601 104.255 198.423 104.299C198.246 104.344 198.098 104.411 197.971 104.505C197.85 104.595 197.756 104.706 197.691 104.831C197.626 104.957 197.595 105.104 197.595 105.265C197.604 105.395 197.639 105.525 197.691 105.645C197.742 105.766 197.825 105.869 197.933 105.949C198.051 106.039 198.225 106.133 198.449 106.222C198.675 106.311 198.96 106.405 199.304 106.495C199.776 106.616 200.17 106.754 200.483 106.906C200.799 107.058 201.047 107.232 201.237 107.425C201.454 107.617 201.606 107.845 201.693 108.1C201.779 108.359 201.828 108.645 201.828 108.958C201.828 109.414 201.705 109.821 201.459 110.174C201.212 110.528 200.877 110.809 200.458 111.01C200.036 111.212 199.555 111.314 199.026 111.314L199.031 111.323Z" fill="black"/>
<path d="M204.473 101.456C204.17 101.456 203.931 101.371 203.766 101.206C203.597 101.04 203.515 100.808 203.515 100.512C203.515 100.217 203.6 99.9984 203.774 99.8285C203.947 99.654 204.182 99.5692 204.477 99.5692C204.794 99.5692 205.032 99.6496 205.2 99.8106C205.37 99.9715 205.453 100.204 205.453 100.508C205.453 100.781 205.367 101.009 205.193 101.183C205.02 101.362 204.781 101.451 204.477 101.451L204.473 101.456ZM203.795 111.171V103.2H205.197V111.171H203.795Z" fill="black"/>
<path d="M210.834 111.323C210.115 111.323 209.473 111.14 208.909 110.778C208.345 110.411 207.894 109.919 207.565 109.294C207.234 108.668 207.07 107.961 207.07 107.17C207.07 106.378 207.234 105.685 207.565 105.055C207.894 104.425 208.341 103.933 208.909 103.571C209.473 103.213 210.118 103.03 210.847 103.03C211.529 103.03 212.144 103.173 212.708 103.454C213.266 103.741 213.697 104.125 213.992 104.612L213.21 105.618C213.042 105.377 212.834 105.158 212.581 104.966C212.33 104.773 212.066 104.621 211.784 104.51C211.502 104.398 211.229 104.344 210.965 104.344C210.475 104.344 210.037 104.469 209.659 104.715C209.281 104.966 208.978 105.301 208.753 105.726C208.527 106.15 208.415 106.633 208.415 107.17C208.415 107.706 208.531 108.189 208.762 108.614C208.992 109.039 209.303 109.378 209.69 109.624C210.081 109.875 210.505 109.995 210.965 109.995C211.238 109.995 211.507 109.951 211.768 109.857C212.026 109.767 212.279 109.629 212.518 109.446C212.755 109.262 212.981 109.039 213.189 108.775L213.988 109.763C213.662 110.219 213.21 110.59 212.639 110.881C212.062 111.171 211.458 111.314 210.831 111.314L210.834 111.323Z" fill="black"/>
<path d="M218.414 111.324C217.763 111.324 217.174 111.14 216.646 110.778C216.116 110.411 215.691 109.92 215.378 109.294C215.062 108.668 214.906 107.961 214.906 107.17C214.906 106.379 215.067 105.659 215.387 105.033C215.709 104.411 216.143 103.92 216.693 103.566C217.244 103.213 217.859 103.034 218.535 103.034C218.931 103.034 219.295 103.097 219.638 103.218C219.976 103.338 220.275 103.508 220.532 103.727C220.787 103.946 221 104.197 221.164 104.478C221.333 104.765 221.437 105.069 221.49 105.391L221.152 105.27L221.164 103.2H222.582V111.171H221.164V109.253L221.503 109.133C221.432 109.406 221.307 109.674 221.125 109.938C220.942 110.201 220.712 110.438 220.43 110.644C220.15 110.854 219.837 111.015 219.494 111.14C219.152 111.261 218.792 111.324 218.42 111.324H218.414ZM218.77 109.987C219.242 109.987 219.664 109.866 220.033 109.62C220.401 109.379 220.691 109.043 220.904 108.614C221.116 108.189 221.22 107.702 221.22 107.152C221.22 106.602 221.116 106.151 220.904 105.73C220.691 105.31 220.405 104.979 220.042 104.733C219.676 104.492 219.251 104.367 218.77 104.367C218.289 104.367 217.881 104.487 217.517 104.733C217.152 104.975 216.866 105.31 216.662 105.73C216.454 106.151 216.355 106.624 216.355 107.152C216.355 107.68 216.46 108.185 216.662 108.614C216.87 109.039 217.152 109.374 217.517 109.62C217.881 109.861 218.297 109.987 218.77 109.987Z" fill="black"/>
<path d="M224.728 111.171V99.9178H226.13V111.171H224.728Z" fill="black"/>
<path d="M232.413 111.171V109.759H234.078V101.939H232.413V100.526H237.222V101.939H235.557V109.759H237.222V111.171H232.413Z" fill="black"/>
<path d="M239.334 111.171V103.2H240.736L240.748 104.84L240.513 104.993C240.613 104.648 240.804 104.326 241.09 104.027C241.376 103.727 241.716 103.486 242.11 103.302C242.504 103.119 242.907 103.03 243.32 103.03C243.909 103.03 244.399 103.15 244.786 103.387C245.175 103.624 245.466 103.986 245.661 104.474C245.856 104.961 245.956 105.574 245.956 106.316V111.167H244.554V106.405C244.554 105.927 244.495 105.538 244.368 105.225C244.247 104.916 244.057 104.688 243.801 104.541C243.546 104.393 243.229 104.331 242.855 104.349C242.551 104.349 242.271 104.398 242.014 104.501C241.759 104.603 241.533 104.742 241.341 104.925C241.152 105.109 241 105.319 240.891 105.556C240.783 105.793 240.727 106.052 240.727 106.325V111.162H239.325L239.334 111.171Z" fill="black"/>
<path d="M250.605 111.323C249.954 111.323 249.37 111.203 248.849 110.966C248.328 110.729 247.9 110.385 247.565 109.937L248.523 109.084C248.818 109.437 249.144 109.696 249.503 109.857C249.863 110.018 250.266 110.098 250.722 110.098C250.917 110.098 251.1 110.076 251.268 110.031C251.438 109.987 251.581 109.915 251.702 109.817C251.823 109.718 251.919 109.602 251.984 109.468C252.049 109.329 252.08 109.182 252.08 109.021C252.08 108.739 251.971 108.507 251.754 108.337C251.646 108.256 251.485 108.171 251.268 108.086C251.051 108.002 250.778 107.912 250.44 107.818C249.867 107.657 249.404 107.483 249.039 107.299C248.675 107.116 248.393 106.906 248.198 106.66C248.051 106.477 247.943 106.271 247.872 106.043C247.804 105.815 247.769 105.569 247.769 105.306C247.769 104.97 247.838 104.666 247.977 104.384C248.117 104.107 248.31 103.866 248.558 103.66C248.805 103.454 249.1 103.298 249.435 103.191C249.767 103.079 250.127 103.025 250.509 103.025C250.89 103.025 251.234 103.074 251.594 103.177C251.953 103.28 252.282 103.428 252.592 103.62C252.899 103.812 253.15 104.04 253.358 104.304L252.548 105.234C252.362 105.033 252.152 104.858 251.928 104.711C251.702 104.563 251.472 104.447 251.243 104.362C251.013 104.277 250.791 104.233 250.588 104.233C250.371 104.233 250.176 104.255 249.997 104.299C249.82 104.344 249.673 104.411 249.547 104.505C249.426 104.595 249.33 104.706 249.265 104.831C249.2 104.957 249.169 105.104 249.169 105.265C249.178 105.395 249.212 105.525 249.265 105.645C249.317 105.766 249.398 105.869 249.507 105.949C249.625 106.039 249.798 106.133 250.024 106.222C250.25 106.311 250.536 106.405 250.878 106.495C251.351 106.616 251.745 106.754 252.058 106.906C252.375 107.058 252.621 107.232 252.812 107.425C253.029 107.617 253.181 107.845 253.268 108.1C253.355 108.359 253.402 108.645 253.402 108.958C253.402 109.414 253.281 109.821 253.033 110.174C252.787 110.528 252.452 110.809 252.031 111.01C251.612 111.212 251.129 111.314 250.601 111.314L250.605 111.323Z" fill="black"/>
<path d="M254.456 104.603V103.204H259.338V104.603H254.456ZM256.09 111.171V101.147H257.492V111.171H256.09Z" fill="black"/>
<path d="M260.708 111.171V103.2H262.128L262.14 105.605L261.992 105.073C262.101 104.697 262.283 104.358 262.538 104.045C262.795 103.736 263.093 103.49 263.431 103.307C263.771 103.124 264.126 103.034 264.504 103.034C264.668 103.034 264.829 103.048 264.985 103.079C265.137 103.11 265.258 103.142 265.344 103.168L264.976 104.765C264.851 104.702 264.715 104.657 264.578 104.626C264.439 104.595 264.308 104.581 264.178 104.581C263.893 104.581 263.623 104.635 263.375 104.747C263.124 104.858 262.907 105.015 262.726 105.212C262.544 105.408 262.401 105.636 262.292 105.896C262.184 106.155 262.131 106.432 262.131 106.723V111.163H260.714L260.708 111.171Z" fill="black"/>
<path d="M269.265 111.323C268.693 111.323 268.207 111.194 267.8 110.934C267.391 110.675 267.08 110.309 266.863 109.83C266.646 109.352 266.538 108.775 266.538 108.095V103.2H267.937V107.733C267.937 108.22 268.011 108.636 268.151 108.981C268.294 109.325 268.501 109.589 268.78 109.772C269.057 109.955 269.395 110.045 269.798 110.045C270.093 110.045 270.362 109.996 270.61 109.893C270.857 109.79 271.069 109.651 271.252 109.468C271.432 109.285 271.577 109.07 271.68 108.82C271.785 108.569 271.837 108.301 271.837 108.006V103.2H273.237V111.171H271.837V109.499L272.071 109.347C271.953 109.714 271.754 110.045 271.472 110.344C271.19 110.644 270.861 110.881 270.483 111.06C270.107 111.238 269.698 111.328 269.265 111.328V111.323Z" fill="black"/>
<path d="M275.327 111.171V103.2H276.745L276.759 104.934L276.493 105.086C276.573 104.814 276.701 104.554 276.875 104.313C277.054 104.071 277.266 103.852 277.517 103.665C277.768 103.477 278.043 103.329 278.338 103.217C278.633 103.106 278.936 103.052 279.253 103.052C279.687 103.052 280.068 103.128 280.397 103.28C280.726 103.432 280.999 103.665 281.216 103.973C281.433 104.282 281.594 104.675 281.703 105.153L281.451 105.078L281.554 104.818C281.663 104.586 281.811 104.362 282.006 104.148C282.196 103.933 282.417 103.745 282.661 103.584C282.909 103.423 283.167 103.294 283.449 103.195C283.731 103.097 284.014 103.052 284.299 103.052C284.872 103.052 285.341 103.173 285.719 103.419C286.091 103.66 286.373 104.031 286.568 104.528C286.758 105.024 286.854 105.645 286.854 106.383V111.176H285.437V106.459C285.437 105.994 285.375 105.61 285.258 105.301C285.142 104.997 284.968 104.774 284.733 104.626C284.504 104.478 284.205 104.407 283.84 104.407C283.545 104.407 283.272 104.456 283.021 104.559C282.77 104.662 282.553 104.8 282.37 104.984C282.187 105.167 282.044 105.377 281.941 105.614C281.837 105.851 281.784 106.11 281.784 106.383V111.176H280.354V106.446C280.354 105.998 280.292 105.628 280.177 105.328C280.059 105.028 279.88 104.8 279.647 104.644C279.412 104.487 279.126 104.407 278.792 104.407C278.497 104.407 278.229 104.456 277.982 104.559C277.734 104.662 277.517 104.8 277.331 104.979C277.144 105.158 277.002 105.364 276.902 105.605C276.803 105.842 276.754 106.101 276.754 106.374V111.18H275.324L275.327 111.171Z" fill="black"/>
<path d="M292.458 111.323C291.673 111.323 290.973 111.149 290.362 110.8C289.751 110.452 289.273 109.973 288.932 109.365C288.588 108.757 288.415 108.051 288.415 107.25C288.415 106.633 288.51 106.065 288.702 105.547C288.892 105.028 289.165 104.586 289.512 104.21C289.859 103.835 290.275 103.544 290.756 103.334C291.239 103.128 291.76 103.021 292.322 103.021C292.834 103.021 293.307 103.119 293.741 103.311C294.173 103.504 294.548 103.772 294.859 104.116C295.175 104.46 295.414 104.867 295.584 105.341C295.752 105.811 295.831 106.329 295.817 106.884L295.804 107.523H289.447L289.165 106.352H294.625L294.39 106.611V106.244C294.361 105.9 294.253 105.587 294.065 105.301C293.879 105.019 293.636 104.787 293.338 104.617C293.038 104.442 292.7 104.358 292.327 104.358C291.798 104.358 291.342 104.465 290.969 104.684C290.597 104.903 290.309 105.216 290.116 105.627C289.921 106.039 289.819 106.548 289.819 107.156C289.819 107.764 289.933 108.238 290.159 108.663C290.384 109.088 290.709 109.414 291.134 109.642C291.555 109.87 292.049 109.987 292.609 109.987C292.991 109.987 293.351 109.924 293.683 109.794C294.018 109.669 294.387 109.428 294.79 109.07L295.497 110.103C295.262 110.335 294.976 110.545 294.647 110.729C294.318 110.912 293.962 111.055 293.584 111.163C293.208 111.27 292.83 111.323 292.458 111.323Z" fill="black"/>
<path d="M297.444 111.171V103.2H298.844L298.858 104.84L298.623 104.993C298.723 104.648 298.914 104.326 299.2 104.027C299.486 103.727 299.824 103.486 300.22 103.302C300.614 103.119 301.017 103.03 301.43 103.03C302.019 103.03 302.509 103.15 302.894 103.387C303.285 103.624 303.576 103.986 303.771 104.474C303.966 104.961 304.066 105.574 304.066 106.316V111.167H302.664V106.405C302.664 105.927 302.605 105.538 302.478 105.225C302.357 104.916 302.167 104.688 301.91 104.541C301.656 104.393 301.337 104.331 300.965 104.349C300.661 104.349 300.379 104.398 300.124 104.501C299.867 104.603 299.643 104.742 299.451 104.925C299.262 105.109 299.11 105.319 299.001 105.556C298.893 105.793 298.837 106.052 298.837 106.325V111.162H297.435L297.444 111.171Z" fill="black"/>
<path d="M305.496 104.603V103.204H310.38V104.603H305.496ZM307.136 111.171V101.147H308.537V111.171H307.136Z" fill="black"/>
<path d="M123.952 124.338C118.592 121.508 108.7 126.708 103.141 129.046C95.1483 132.409 87.3252 136.723 79.2634 139.871C62.2989 146.501 44.7706 149.555 28.5475 144.793C3.0096 137.295 -1.76927 108.252 5.26026 78.8326C15.7157 35.0883 57.7238 -17.647 93.6175 10.1268C108.331 21.5143 110.153 36.5191 120.777 39.6444" stroke="black" stroke-width="2.57343" stroke-linecap="round" stroke-linejoin="round"/>
<path d="M140.105 43.1808C143.956 42.1167 148.297 40.619 153.232 38.6293C200.604 19.5249 196.424 50.6564 196.424 50.6564" stroke="black" stroke-width="2.86363" stroke-linecap="round" stroke-linejoin="round"/>
</g>
</svg>
